<svg xmlns="http://www.w3.org/2000/svg" xmlns:xlink="http://www.w3.org/1999/xlink" viewBox="0 0 1795.75 1399.02"><defs><style>.cls-1,.cls-12,.cls-9{fill:#d8aa28;}.cls-1,.cls-3{stroke:#3a2567;}.cls-1,.cls-10,.cls-12,.cls-2,.cls-3,.cls-4,.cls-6,.cls-7,.cls-8{stroke-miterlimit:10;}.cls-2{fill:#a2353a;}.cls-2,.cls-4{stroke:#39266e;}.cls-3{fill:url(#linear-gradient);}.cls-4{fill:#fdded0;}.cls-5{fill:#f7f6fb;}.cls-12,.cls-6,.cls-7,.cls-8{stroke:#422469;}.cls-6{fill:url(#radial-gradient);}.cls-7{fill:url(#radial-gradient-2);}.cls-8{fill:url(#radial-gradient-3);}.cls-10{fill:#e8c21e;stroke:#422b7b;}.cls-11{fill:#864048;}</style><linearGradient id="linear-gradient" x1="1016.4" y1="149.84" x2="1014.87" y2="1759.88" gradientUnits="userSpaceOnUse"><stop offset="0" stop-color="#f6cfc1"/><stop offset="0.51" stop-color="#fee6d4"/><stop offset="1" stop-color="#a38470"/></linearGradient><radialGradient id="radial-gradient" cx="1204.61" cy="737.77" r="16.72" gradientUnits="userSpaceOnUse"><stop offset="0" stop-color="#221953"/><stop offset="0" stop-color="#221954"/><stop offset="0.48" stop-color="#0f2d5a"/><stop offset="1" stop-color="#270e44"/></radialGradient><radialGradient id="radial-gradient-2" cx="1234.15" cy="718.65" r="126.55" gradientTransform="translate(0 -135.88) scale(1 1.19)" xlink:href="#radial-gradient"/><radialGradient id="radial-gradient-3" cx="1229.23" cy="836.36" r="99.36" xlink:href="#radial-gradient"/></defs><g id="Layer_2" data-name="Layer 2"><g id="Layer_1-2" data-name="Layer 1"><path class="cls-1" d="M268.37,217.72S10.26,493.73,1.93,502.78c0,0,371.54-157.45,372.19-183,0,0-209.16,301.92-181.06,830.06,0,0,119.65-387.15,223.84-452.1,0,0-.52,350.24-28.53,695.69,0,0,85.8-69.51,125.47-196.52,0,0,2.31,108.61,42.49,200.78,0,0,47.14-132.84,72-220.79,6.2-21.94,11-41.08,13.35-54.68.3-1.76.56-3.43.78-5,8.67-62.25-.48,3.24-.48,3.24s68.16,66.07,111,181.86c0,0,27-96.61,35.27-104.59,0,0,66.73,83.63,78.27,107.47,0,0,39.86-54.29,39.13-65.57s.73,11.28.73,11.28,79.39-133.17,165.89-12.17c0,0,40.7,50.49,47.32,68.79,0,0,76.39-137.34,109.52-166.2,0,0,12.19,78.15,17,86.46,0,0,135.71-200.35,170.55-216.88,0,0,10.69,57.63,27.55,71.37,0,0,82.81-263,99.51-302.81a21.23,21.23,0,0,1,2.47-4.91c7.26-7,46.23,93.34,155,116.59,0,0-61.9-114.23-59.53-287.25,0,0,11.84-187.11-6.14-196.79,0,0,107.46,34.48,159.43,101.35,0,0-44.75-271.51-211.91-307.5,0,0-337.51-225.69-570.23-191.66C1012.8,9.27,595.5-64.82,268.37,217.72Z"/><path class="cls-2" d="M508.34,646.34s-.19,2.9-.56,8.35c-4.73,68.24-39.43,537-113,733.12,0,0,101.81-106,119.1-190.93,0,0,18.53,183.32,45.29,197.39l88.09-846.18"/><path class="cls-2" d="M1554,786s53.64,91.41,147,110c0,0-157.52-268.37-163.92-415L603.6,723.5s-63.85,277-44.47,670.77c0,0,89-261.86,82.39-267.19,0,0,87.48,85.41,111.3,180.1s-.13,5-.13,5,23.62-111.78,35.4-109.57c0,0,56.3,68.13,78.27,107.47,0,0,65.08-108.1,86.33-105,0,0,70.41-74.22,166.74,107.31s.13-5.25.13-5.25,101.84-170.22,109.39-161c0,0,8.74,66.93,17,86.46,0,0,153.86-225.36,170.55-216.88,0,0,5.1,50.45,27.55,71.37,0,0,91-300.7,102-307.72"/><path class="cls-3" d="M594.92,727,630,851.1l63.77,184.22s27.58,42.9,90.39,73.53l189.95,90.39s42.9,24.51,75.07,0c0,0,232.85-114.9,257.36-157.79s111.83-307.92,113.36-337,58.21-327.83,58.21-327.83-456.51-559.15-923.74-16.85"/><path class="cls-4" d="M1334.45,985.77s62.29,3.06,69.44-41.87A602.75,602.75,0,0,1,1459,873.43s12.26-128.29-27.57-142.79c0,0-29.62-12.54-40.85-5.34l-62,260.51Z"/><path class="cls-2" d="M1344.66,942.25s9.19-16.34,40.85-14.29c0,0,65.36-49,43.92-136.86,0,0-24.28-34.72-40.23-21.44,0,0,0,73.53-13.61,102.13C1375.59,871.79,1402.87,873.83,1344.66,942.25Z"/><path class="cls-4" d="M679.38,1014.79s-62,6.6-71.71-37.85a603.47,603.47,0,0,0-59.07-67.22S529.07,782.33,568,765.6c0,0,28.85-14.21,40.48-7.66L685.2,1014.5Z"/><path class="cls-2" d="M666.71,971.93s-10.11-15.8-41.6-12c0,0-68-45.22-51.62-134.13,0,0,22.26-36.05,38.93-23.7,0,0,4.22,73.41,19.4,101.19C631.82,903.33,604.7,906.92,666.71,971.93Z"/><path class="cls-5" d="M1106.43,730.6v75.57s27.57,81.19,113.87,88.34c0,0,76.59-1.53,134.3-115.91,0,0,10.72-58.11,6.12-60Z"/><path class="cls-6" d="M1191.71,727.48h26.81s.77,36-13.4,28.34c0,0-11.11,1.53-13.41-24.51S1191.71,727.48,1191.71,727.48Z"/><path class="cls-7" d="M1374.57,717l-2.55-4.6-3.07-2.89,2.56-4.26s-264,12.26-272.68,8.68v4.74l-5.11,1.7v5.82l5.11-1.53v7.15c3.06.51,104.68,2,272.68-14.81"/><path class="cls-8" d="M1101.31,809.36l5.62-3.57s38.3,84.76,108.77,83.23c0,0,57.19,15.83,139.4-110.81h2s-50.3,114.9-140.93,115.92C1216.21,894.13,1158,905.11,1101.31,809.36Z"/><path class="cls-9" d="M986.38,14.06c72.52-8.78,186.25-7.61,218.23,9.47s-27.25,245.85-27.25,245.85-1-59.22-27.57-61.78S986.38,14.06,986.38,14.06Z"/><path class="cls-10" d="M1054.35,680.09c-1,.48,37.87-29.28,54-34,0,0,192.12-65.36,233-54.13C1341.33,591.92,1219.79,598.05,1054.35,680.09Z"/><path class="cls-11" d="M1093.33,701.32s39.72,2,43.81,1.71c0,0,41.53-2,44.25-3.41,0,0-43.23-9.19-50.72-7.83C1130.67,691.79,1100.58,696.9,1093.33,701.32Z"/><path class="cls-12" d="M1150.81,214.23S948.21,478.74,901.42,997.55s0,5.11,0,5.11V922S846.86,494.06,912,374.57c0,0-265.72,261.45-294.32,323.75l-40.85,149.1s-5.11,142,6.13,183.83c0,0-58.21-171.56-58.21-224.67s-79.18-645.83,7.9-736c76.2-78.92,380-66,454.73-61.54,10.66.64,16.66,1.1,16.66,1.1s96.64,119.45,145.73,197.49c18.36,29.2,30.07,52.6,27.57,61.78l41.17-42.89S1344,358.83,1335.75,772.86l-.09,4.35c-9.19,417.45.48,4.85.48,4.85s58.75-143,58.75-156.25c0,0-38.81,279.83-86.81,320.68,0,0,207.32-217.53,236.94-484.09,0,0,55.15,98,78.64,123.58,0,0-6.13-355.41-11.23-374.81-4.21-16-267-155.14-416.72-193.92-31.9-8.26-58.67-12-76.71-9Z"/></g></g></svg>